<svg width="187" height="193" viewBox="0 0 187 193" fill="none" xmlns="http://www.w3.org/2000/svg">
<g clip-path="url(#clip0)">
<path fill-rule="evenodd" clip-rule="evenodd" d="M83.7932 24.6377C106.935 24.6377 127.882 34.0636 143.043 49.295C158.204 64.5265 167.586 85.5768 167.586 108.819C167.586 132.068 158.204 153.111 143.043 168.343C127.875 183.574 106.928 193 83.7932 193C60.6517 193 39.705 183.581 24.5437 168.343C9.38243 153.111 0 132.068 0 108.819C0 85.5702 9.38243 64.5265 24.5437 49.295C39.705 34.057 60.6582 24.6377 83.7932 24.6377ZM141.785 50.5654C126.945 35.6565 106.443 26.4347 83.7998 26.4347C61.1562 26.4347 40.655 35.6565 25.8148 50.5654C10.9746 65.4744 1.79524 86.0704 1.79524 108.819C1.79524 131.567 10.9746 152.163 25.8148 167.072C40.655 181.981 61.1562 191.203 83.7998 191.203C106.443 191.203 126.945 181.981 141.785 167.072C156.625 152.163 165.804 131.567 165.804 108.819C165.804 86.0704 156.625 65.4744 141.785 50.5654Z" fill="#5ABBAC"/>
<path d="M104.637 184.349C146.159 172.788 170.49 129.599 158.981 87.8845C147.473 46.1701 104.483 21.7264 62.9613 33.288C21.4392 44.8496 -2.89186 88.0384 8.61646 129.753C20.1248 171.467 63.1145 195.911 104.637 184.349Z" fill="#5ABBAC"/>
<path fill-rule="evenodd" clip-rule="evenodd" d="M6.14575 103.553C6.22438 102.441 6.51266 101.381 6.95164 100.387C8.15721 97.6486 10.5094 95.3448 12.8943 93.4294C23.4954 84.9316 36.8876 80.0146 50.4437 79.6394L51.4985 111.518C51.4985 111.518 9.6314 123.596 6.93199 137.616L6.14575 103.553Z" fill="#0A7163"/>
<path fill-rule="evenodd" clip-rule="evenodd" d="M121.015 98.8927C131.806 97.1089 145.5 83.6612 148.946 73.2414C151.292 66.1522 152.038 58.5365 151.115 51.1248C150.486 46.0564 149.09 41.1197 147.701 36.2027C144.438 24.6705 140.645 11.5322 137.382 0C132.514 5.14079 126.781 11.0056 123.367 17.2193C117.516 14.2639 111.665 11.3018 105.814 8.34637C105.814 8.34637 145.185 73.972 89.4277 82.042" fill="#0A7163"/>
<path fill-rule="evenodd" clip-rule="evenodd" d="M108.232 54.4752C108.127 54.2712 108.199 54.021 108.402 53.9091C108.605 53.7972 108.861 53.8762 108.966 54.0803C108.992 54.1264 117.051 69.2525 117.857 72.9584C118.296 74.9528 118.368 76.9802 117.916 78.7837C117.51 80.403 116.684 81.8313 115.315 82.8977C115.131 83.0359 114.869 83.003 114.732 82.8252C114.594 82.6409 114.627 82.3776 114.81 82.2394C116.016 81.3047 116.75 80.0278 117.11 78.5862C117.529 76.9209 117.457 75.0186 117.044 73.1427C116.265 69.5421 108.258 54.5147 108.232 54.4752Z" fill="#383161"/>
<path fill-rule="evenodd" clip-rule="evenodd" d="M53.2219 31.0554C53.3464 30.8579 53.6019 30.8052 53.7985 30.9303C53.995 31.0554 54.0475 31.3121 53.923 31.5095C53.9033 31.5425 46.5258 42.739 60.1932 52.6453C60.3832 52.7836 60.4225 53.0403 60.2915 53.2312C60.1605 53.4221 59.8984 53.4616 59.7084 53.3299C45.3923 42.9496 53.2023 31.0883 53.2219 31.0554Z" fill="#383161"/>
<path fill-rule="evenodd" clip-rule="evenodd" d="M60.8222 51.9674C60.8222 51.9674 53.2612 45.6944 51.5839 40.3364C49.9131 34.9784 50.7452 30.2523 55.1416 24.8943C59.5314 19.5363 73.0285 7.45118 76.7893 5.66738C80.5567 3.88357 88.1898 6.68105 93.2086 11.2689C93.2086 11.2689 99.5313 9.87347 101.942 10.9201C104.347 11.9732 109.772 19.4573 114.398 34.4518C119.03 49.4463 107.82 56.1603 99.8982 61.0641L71.5805 59.3659L60.8222 51.9674Z" fill="#383161"/>
<path fill-rule="evenodd" clip-rule="evenodd" d="M60.3109 43.6605L56.5239 45.0823C56.5239 45.0823 57.048 59.7674 53.202 69.8845C49.356 79.9949 52.4158 88.5453 58.6205 86.4982C58.6205 86.4982 58.9809 92.6593 64.1307 94.081C69.2806 95.5028 75.6753 96.6087 75.6753 96.6087L92.9922 97.5697C92.9922 97.5697 109.438 102.144 110.656 82.7595C110.656 82.7595 116.252 82.5159 116.343 75.7756C116.429 69.0353 108.737 58.0824 108.737 44.1147C108.737 30.1536 60.3109 43.6605 60.3109 43.6605Z" fill="#383161"/>
<path fill-rule="evenodd" clip-rule="evenodd" d="M103.475 58.892C103.475 58.892 102.001 56.9173 98.8365 55.5745C95.6719 54.2318 96.2092 59.1422 97.2051 59.5963C98.201 60.0439 102.637 61.367 103.475 58.892Z" fill="#F3DBB1"/>
<path fill-rule="evenodd" clip-rule="evenodd" d="M52.5338 80.0869C49.1792 81.0479 46.8794 85.5305 45.5494 92.0536C44.1997 98.6754 35.1841 131.765 36.0359 136.418C35.7148 133.772 55.8818 116.671 58.7123 113.9C58.7123 113.9 57.2053 93.0212 56.6157 88.4267C56.0325 83.8257 54.2635 80.2646 52.5338 80.0869Z" fill="#E6BAA8"/>
<path fill-rule="evenodd" clip-rule="evenodd" d="M44.9204 126.387C50.601 121.068 57.1857 115.395 58.7123 113.894C58.7123 113.894 57.2054 93.0147 56.6157 88.4202C56.524 87.6961 56.3995 86.9918 56.2553 86.327L53.5363 83.7007L51.7279 105.541L52.7762 108.266L50.7844 111.307L44.9204 126.387Z" fill="#D68A83"/>
<path fill-rule="evenodd" clip-rule="evenodd" d="M52.7958 79.7974C52.7958 79.7974 49.9654 80.2845 48.5829 82.3447C47.2004 84.405 41.9392 102.19 41.9392 102.19C41.9392 102.19 41.664 103.079 42.0506 103.744C42.4371 104.409 52.3961 110.306 52.3961 110.306L58.0439 96.24C58.0505 96.24 57.7164 80.5609 52.7958 79.7974Z" fill="#CC5135"/>
<path fill-rule="evenodd" clip-rule="evenodd" d="M42.3191 101.236C42.0833 101.828 41.9457 102.191 41.9457 102.191C41.9457 102.191 41.9129 102.289 41.8867 102.441L53.1234 109.286L53.8506 108.259L42.3191 101.236Z" fill="#E6B35B"/>
<path fill-rule="evenodd" clip-rule="evenodd" d="M115.053 80.0869C118.407 81.0479 120.707 85.5305 122.037 92.0536C123.387 98.6754 132.402 131.765 131.55 136.418C131.871 133.772 111.704 116.671 108.874 113.9C108.874 113.9 110.381 93.0212 110.971 88.4267C111.554 83.8257 113.329 80.2646 115.053 80.0869Z" fill="#E6BAA8"/>
<path fill-rule="evenodd" clip-rule="evenodd" d="M122.666 126.387C116.985 121.068 110.401 115.395 108.874 113.894C108.874 113.894 110.381 93.0147 110.971 88.4202C111.062 87.6961 111.187 86.9918 111.331 86.327L114.05 83.7007L115.858 105.541L114.81 108.266L116.802 111.307L122.666 126.387Z" fill="#D68A83"/>
<path fill-rule="evenodd" clip-rule="evenodd" d="M114.784 79.7974C114.784 79.7974 117.615 80.2845 118.997 82.3447C120.38 84.405 125.641 102.19 125.641 102.19C125.641 102.19 125.916 103.079 125.529 103.744C125.143 104.409 115.184 110.306 115.184 110.306L109.543 96.24C109.536 96.24 109.87 80.5609 114.784 79.7974Z" fill="#CC5135"/>
<path fill-rule="evenodd" clip-rule="evenodd" d="M125.267 101.236C125.503 101.828 125.641 102.191 125.641 102.191C125.641 102.191 125.674 102.289 125.7 102.441L114.463 109.286L113.736 108.259L125.267 101.236Z" fill="#E6B35B"/>
<path fill-rule="evenodd" clip-rule="evenodd" d="M83.669 48.6038C88.6419 48.6038 92.7041 52.6914 92.7041 57.6808V75.0581C92.7041 80.0541 88.6354 84.1351 83.669 84.1351C78.696 84.1351 74.6338 80.0475 74.6338 75.0581V57.6808C74.6338 52.6848 78.696 48.6038 83.669 48.6038Z" fill="#E6B5A3"/>
<path fill-rule="evenodd" clip-rule="evenodd" d="M94.2765 75.7558C94.2765 75.7558 90.4567 81.2586 83.7933 81.2586C77.1234 81.2586 73.3102 75.7558 73.3102 75.7558C72.596 74.9462 71.1873 75.4465 68.2651 76.4996C65.343 77.5528 59.3086 78.4677 52.8025 79.7974C52.7959 79.804 52.6059 79.9093 52.5338 80.087C52.5338 80.087 53.1039 80.1594 53.3463 80.7189C53.5887 81.2718 53.8836 96.4111 53.9556 99.0835C54.0277 101.749 48.4258 107.752 51.9638 118.725C52.619 120.753 53.189 122.484 53.6804 123.978C53.6804 123.978 57.1333 137.399 57.723 144.515C58.3127 151.63 56.5306 158.212 54.9253 166.164C54.0932 170.271 52.5601 175.748 51.2759 180.079C61.1759 184.647 72.1898 187.194 83.7933 187.194C95.3969 187.194 106.411 184.647 116.311 180.079C115.02 175.741 113.493 170.271 112.661 166.164C111.05 158.212 109.274 151.63 109.864 144.515C110.453 137.399 113.913 123.978 113.913 123.978C114.411 122.484 114.974 120.753 115.629 118.725C119.174 107.752 113.566 101.749 113.638 99.0835C113.71 96.4177 114.005 81.2784 114.247 80.7189C114.489 80.166 115.059 80.087 115.059 80.087C114.987 79.9027 114.797 79.7974 114.791 79.7974C108.285 78.4677 102.25 77.5528 99.3281 76.4996C96.3993 75.4465 94.9907 74.9462 94.2765 75.7558Z" fill="#CC5135"/>
<path fill-rule="evenodd" clip-rule="evenodd" d="M66.3715 77.0657C65.4542 77.3026 64.3994 77.533 63.2331 77.7766L63.1676 80.6399L64.7925 84.0166L74.1029 92.3366L54.9121 129.079C55.967 133.628 57.3691 140.223 57.7229 144.521C57.7622 145.008 57.795 145.495 57.8081 145.976L72.5697 120.318L86.3616 109.681L78.7744 138.762L100.265 132.449C100.265 132.449 102.303 132.002 103.718 133.963C104.511 135.056 107.466 139.762 109.936 143.718C110.696 136.445 113.906 123.984 113.906 123.984C114.149 123.247 114.411 122.451 114.692 121.588L83.9636 86.0703L72.2224 77.4672L66.3715 77.0657Z" fill="#C53627"/>
<path fill-rule="evenodd" clip-rule="evenodd" d="M68.2651 76.4996C68.2651 76.4996 69.0579 76.4338 69.2807 79.3695C70.46 95.1012 81.8015 94.8906 83.7933 85.3528V81.2586C77.1234 81.2586 73.3102 75.7558 73.3102 75.7558C72.5894 74.9462 71.1873 75.4465 68.2651 76.4996Z" fill="#C53627"/>
<path fill-rule="evenodd" clip-rule="evenodd" d="M99.3216 76.4996C99.3216 76.4996 98.5288 76.4338 98.3061 79.3695C97.1267 95.1012 85.7853 94.8906 83.7935 85.3528V81.2586C90.4634 81.2586 94.2766 75.7558 94.2766 75.7558C94.9908 74.9462 96.3995 75.4465 99.3216 76.4996Z" fill="#C53627"/>
<path fill-rule="evenodd" clip-rule="evenodd" d="M74.6729 75.9071L88.2814 70.5096L92.704 68.7587V66.817C90.1094 68.5086 87.1086 69.5157 83.7933 69.542C83.754 69.542 83.7081 69.542 83.6688 69.542C83.6295 69.542 83.5836 69.542 83.5443 69.542C80.3469 69.5091 77.3199 68.3046 74.6336 66.3496V71.5957C74.5943 72.1815 74.3519 74.6104 73.1987 75.6438C73.238 75.6767 73.2774 75.7162 73.3101 75.7557C73.3101 75.7557 73.4543 75.9598 73.7229 76.2889L74.6729 75.9071Z" fill="#D2887B"/>
<path fill-rule="evenodd" clip-rule="evenodd" d="M102.29 45.6616C102.427 45.6813 102.558 45.7011 102.689 45.734H102.696C105.12 46.2605 106.942 48.413 106.974 51.0064C107.007 54.0211 104.602 56.496 101.602 56.5355C98.6009 56.5684 96.1373 54.1527 96.098 51.138C96.0784 49.3871 96.8777 47.814 98.1488 46.8003C97.9981 48.413 98.2405 50.4074 100.285 50.6246L100.245 47.4717C100.232 46.2013 101.418 45.6221 102.29 45.6616Z" fill="#D68A83"/>
<path fill-rule="evenodd" clip-rule="evenodd" d="M65.1136 45.4048C64.9826 45.4246 64.845 45.4443 64.7139 45.4707H64.7074C62.2766 45.9643 60.4224 48.0904 60.3569 50.6839C60.2783 53.6986 62.6501 56.2064 65.6509 56.2854C68.6517 56.3644 71.148 53.9816 71.2266 50.9669C71.2725 49.216 70.4928 47.6363 69.2414 46.6028C69.3658 48.2155 69.0972 50.2099 67.053 50.3942L67.1316 47.2479C67.1644 45.9709 65.985 45.3719 65.1136 45.4048Z" fill="#D68A83"/>
<path fill-rule="evenodd" clip-rule="evenodd" d="M83.662 73.011C73.513 73.011 65.0479 60.4322 65.0479 50.4995V37.3085C65.0479 27.0269 73.4213 18.6082 83.662 18.6082C93.8962 18.6082 102.27 27.0204 102.27 37.3085V50.223C102.276 61.1036 94.8921 73.011 83.662 73.011Z" fill="#E6BAA8"/>
<path fill-rule="evenodd" clip-rule="evenodd" d="M64.3208 41.7779V38.546C64.3208 34.0108 65.9522 29.8442 68.6451 26.5991L96.6614 27.2968L97.2183 30.2984L95.4099 31.6214C95.4099 31.6214 84.6843 54.7253 66.4305 43.1734C65.6836 42.6995 64.9826 42.2387 64.3208 41.7779Z" fill="#D68A83"/>
<path fill-rule="evenodd" clip-rule="evenodd" d="M94.2635 54.3501C92.4159 54.3831 90.9482 55.9167 90.981 57.7729C91.0138 59.6292 92.5404 61.1036 94.388 61.0707C96.2357 61.0378 97.7033 59.5041 97.6706 57.6479C97.6313 55.7983 96.1112 54.3172 94.2635 54.3501Z" fill="#D3776D"/>
<path fill-rule="evenodd" clip-rule="evenodd" d="M72.9037 54.7649C71.056 54.7979 69.5884 56.3315 69.6211 58.1878C69.6539 60.044 71.1805 61.5184 73.0282 61.4855C74.8758 61.4526 76.3435 59.9189 76.3107 58.0627C76.278 56.2065 74.7513 54.732 72.9037 54.7649Z" fill="#D3776D"/>
<path d="M116.311 180.079C115.02 175.741 113.493 170.271 112.661 166.164C111.049 158.212 109.274 151.63 109.863 144.515C110.453 137.399 113.912 123.978 113.912 123.978C114.41 122.484 114.974 120.752 115.629 118.725C119.174 107.752 113.565 101.749 113.637 99.0835C113.709 96.4176 114.004 81.2783 114.247 80.7188C114.489 80.1659 115.059 80.0869 115.059 80.0869M52.527 80.0869C52.527 80.0869 53.097 80.1593 53.3395 80.7188C53.5819 81.2717 53.8767 96.4111 53.9488 99.0835C54.0209 101.749 48.4189 107.752 51.957 118.725C52.6122 120.752 53.1822 122.484 53.6736 123.978C53.6736 123.978 57.1265 137.399 57.7162 144.515C58.3058 151.63 56.5237 158.212 54.9185 166.164C54.0864 170.271 52.5532 175.748 51.269 180.079L52.527 80.0869ZM113.867 100.308L110.925 93.528L113.867 100.308ZM53.7981 100.044L55.3575 95.8845L53.7981 100.044ZM64.4385 172.865C64.4385 172.865 78.2501 183.363 95.9601 183.897L64.4385 172.865ZM115.341 176.748L97.5522 146.187L115.341 176.748ZM55.6851 162.497L60.5401 150.274L55.6851 162.497Z" stroke="#C53627" stroke-width="0.8504" stroke-miterlimit="2.6131" stroke-linecap="round" stroke-linejoin="round"/>
<path fill-rule="evenodd" clip-rule="evenodd" d="M78.1323 41.6266C78.5255 41.8044 78.6958 42.2717 78.5189 42.6601C78.342 43.055 77.8768 43.2261 77.4837 43.0484C77.4771 43.0484 75.125 41.9294 72.8842 43.3446C72.5173 43.575 72.0324 43.4631 71.8031 43.0945C71.5738 42.7259 71.6852 42.2388 72.0455 42.0084C75.0136 40.1456 78.1192 41.6201 78.1323 41.6266Z" fill="#383161"/>
<path fill-rule="evenodd" clip-rule="evenodd" d="M68.0488 70.1543C68.0488 70.1543 58.5747 72.2541 57.0415 77.8753C55.5083 83.4966 52.3503 95.2987 64.7008 107.924C77.0512 120.548 73.9522 134.194 73.9522 134.194C73.9522 134.194 73.3625 139.236 77.6409 138.939C81.9194 138.643 93.8702 131.673 93.8702 131.673C93.8702 131.673 97.4148 129.152 95.934 123.813C94.7023 119.364 92.396 107.509 82.0373 99.1033C80.1241 97.5499 77.9947 96.6547 75.4263 95.641C59.9309 89.5655 65.677 76.1969 65.677 76.1969L68.0488 70.1543Z" fill="white"/>
<path fill-rule="evenodd" clip-rule="evenodd" d="M68.0488 70.1543C68.0488 70.1543 59.2364 72.1092 57.2314 77.2961L64.7859 84.0101C64.1569 79.7513 65.6769 76.21 65.6769 76.21L68.0488 70.1543ZM67.0594 110.576C69.7588 113.907 71.4885 117.244 72.5762 120.312L82.0438 99.1165C80.0454 97.7869 77.8636 96.6152 75.4787 95.6739L67.0594 110.576Z" fill="#F3DBB1"/>
<path fill-rule="evenodd" clip-rule="evenodd" d="M96.5105 42.535C96.8446 42.8114 96.8905 43.3051 96.6153 43.6408C96.3401 43.9765 95.8487 44.0226 95.5211 43.7461C95.5146 43.7395 93.5424 42.0413 91.0003 42.818C90.5875 42.9431 90.1485 42.7061 90.024 42.2914C89.8995 41.8767 90.1354 41.4357 90.5416 41.3106C93.8897 40.2838 96.5039 42.5284 96.5105 42.535Z" fill="#383161"/>
<path fill-rule="evenodd" clip-rule="evenodd" d="M84.311 52.8757C84.6059 53.8433 85.1169 55.5876 85.0514 55.8773C84.9597 56.2788 82.8958 56.5618 82.3848 56.0089C82.0441 55.6403 82.5682 54.1066 83.0138 53.0798C83.61 51.6712 83.9114 51.579 84.311 52.8757Z" fill="#F1D3C8"/>
<path fill-rule="evenodd" clip-rule="evenodd" d="M94.5253 49.8281C94.5253 50.2626 94.3484 50.6773 94.047 50.9866C93.7391 51.296 93.3263 51.4671 92.8873 51.4605C92.4549 51.4605 92.0421 51.2828 91.7342 50.9735C91.4262 50.6641 91.2559 50.2494 91.2624 49.815C91.2624 49.4529 90.9742 49.1567 90.6138 49.1567C90.2534 49.1567 89.9586 49.4464 89.9586 49.8084C89.952 50.5917 90.26 51.3421 90.8104 51.9016C91.3607 52.4611 92.1011 52.7704 92.8873 52.777C93.667 52.777 94.4139 52.4742 94.9709 51.9213C95.2591 51.6383 95.4754 51.3026 95.6261 50.934C95.7112 50.9142 95.875 50.901 96.0257 51.0129C96.1109 51.0788 96.2223 51.059 96.2878 50.98C96.3533 50.8945 96.3337 50.7826 96.2551 50.7167C96.0847 50.5851 95.9078 50.5522 95.7571 50.5522V50.539C95.9143 50.5061 96.1175 50.4995 96.3271 50.5983C96.4189 50.6443 96.5302 50.6048 96.5761 50.5127C96.622 50.4205 96.5827 50.3086 96.4909 50.2626C96.2551 50.1507 96.0257 50.1309 95.8292 50.1507V50.1441C95.993 50.0783 96.1895 50.0388 96.4123 50.0651C96.5171 50.0783 96.6089 50.0059 96.622 49.9005C96.6351 49.7952 96.563 49.7031 96.4582 49.6899C96.2288 49.6636 96.0192 49.6833 95.8423 49.7426C95.7964 49.42 95.5278 49.1765 95.2002 49.1765C94.8202 49.1699 94.5253 49.4595 94.5253 49.8281Z" fill="#383161"/>
<path fill-rule="evenodd" clip-rule="evenodd" d="M72.7989 49.8281C72.7989 50.2626 72.9758 50.6773 73.2837 50.9866C73.5916 51.296 74.0044 51.4671 74.4368 51.4605C74.8693 51.4605 75.2821 51.2828 75.59 50.9735C75.8979 50.6641 76.0683 50.2494 76.0617 49.815C76.0617 49.4529 76.35 49.1567 76.7104 49.1567C77.0707 49.1567 77.3656 49.4464 77.3656 49.8084C77.3656 50.5917 77.0642 51.3421 76.5138 51.9016C75.9635 52.4611 75.2231 52.7704 74.4434 52.777C73.6637 52.777 72.9168 52.4742 72.3599 51.9213C72.0716 51.6383 71.8554 51.3026 71.7047 50.934C71.6195 50.9142 71.4557 50.901 71.305 51.0129C71.2198 51.0788 71.1084 51.059 71.0429 50.98C70.9774 50.8945 70.9971 50.7826 71.0757 50.7167C71.246 50.5851 71.4229 50.5522 71.5736 50.5522L71.5671 50.539C71.4098 50.5061 71.2067 50.4995 70.9971 50.5983C70.9053 50.6443 70.7939 50.6048 70.7481 50.5127C70.7022 50.4205 70.7415 50.3086 70.8333 50.2626C71.0691 50.1507 71.2984 50.1309 71.495 50.1507V50.1441C71.3312 50.0783 71.1347 50.0388 70.9119 50.0651C70.8071 50.0783 70.7153 50.0059 70.7022 49.9005C70.6891 49.7952 70.7612 49.7031 70.866 49.6899C71.0953 49.6636 71.305 49.6833 71.4885 49.7426C71.5278 49.42 71.8029 49.1765 72.1305 49.1765C72.504 49.1699 72.7989 49.4595 72.7989 49.8281Z" fill="#383161"/>
<path fill-rule="evenodd" clip-rule="evenodd" d="M106.837 42.7389L105.12 47.0437C105.12 47.0437 102.27 46.7541 102.27 50.2954C102.27 50.2954 99.7474 48.4655 100.717 44.1409C100.717 44.1409 94.0275 35.9986 95.4362 30.114C95.4362 30.114 95.8883 28.6856 94.9186 28.5079C93.9489 28.3302 85.8507 53.389 69.1824 40.2705C69.1824 40.2705 69.6804 47.6229 65.0481 48.8538C65.0481 48.8538 64.1112 45.7799 62.1653 46.8265C62.1653 46.8265 59.5248 31.4765 63.6919 25.0522C67.8589 18.6344 72.8646 12.2101 81.7557 13.0461C90.6533 13.882 107.603 21.6952 106.837 42.7389Z" fill="#383161"/>
<path fill-rule="evenodd" clip-rule="evenodd" d="M66.09 56.9107C66.09 56.9107 69.7788 60.7942 74.47 58.8064C79.1677 56.8185 87.0367 53.0008 96.5043 57.6874C96.5043 57.6874 101.739 60.735 103.476 58.892C103.476 58.892 106.444 62.4398 105.644 66.4616C104.845 70.4834 103.508 78.6521 101.51 80.7321C99.5116 82.8121 78.5715 87.4329 67.8328 81.7392C67.8328 81.7392 65.2972 80.3964 64.701 77.7174C64.0982 75.0384 62.3029 66.4616 62.0998 65.2571C61.8967 64.0525 63.633 61.9067 64.7665 61.571C64.7665 61.571 64.4323 57.819 66.09 56.9107Z" fill="white"/>
<path fill-rule="evenodd" clip-rule="evenodd" d="M62.4404 63.8617C62.9777 62.8348 64.0063 61.7948 64.7664 61.571C64.7664 61.571 67.3806 64.5002 72.6484 64.0986C72.6484 64.0986 67.6689 66.0009 62.4404 63.8617Z" fill="#F3DBB1"/>
<path fill-rule="evenodd" clip-rule="evenodd" d="M102.846 78.2965C102.44 79.3694 101.995 80.2252 101.51 80.732C100.389 81.8971 93.2871 83.8652 85.3788 84.3588C84.8809 80.6925 86.7744 68.5481 86.7744 68.5481L88.9759 61.7947L96.9562 71.1284L98.5942 70.3451L102.846 78.2965Z" fill="#F3DBB1"/>
<path fill-rule="evenodd" clip-rule="evenodd" d="M97.4872 78.3032C97.4872 78.3032 98.5683 71.1153 98.5945 70.3452C98.6207 69.575 95.4102 69.4105 94.8795 74.1563C94.3488 78.9022 97.2644 78.1518 97.2644 78.1518L97.4872 78.3032Z" fill="#D68A83"/>
<path fill-rule="evenodd" clip-rule="evenodd" d="M83.7935 61.5512C83.7935 61.5512 83.7935 90.1184 83.7935 93.528C83.7935 96.9377 85.7001 99.123 87.7181 101.098C89.7361 103.072 98.0637 115.329 98.0637 115.329L106.621 107.989C106.621 107.989 95.7574 94.5812 95.2267 93.5149C94.6959 92.4486 94.6435 90.4212 95.2791 86.9062C95.9146 83.3913 97.9588 77.329 97.3167 75.7821C96.6812 74.2353 91.3741 66.139 88.773 61.4458C88.773 61.4458 88.2947 61.097 87.8295 61.2484C87.3643 61.3932 86.9974 62.5122 86.9974 62.5122L85.7263 60.5112C85.7263 60.5112 84.6452 59.3395 83.7935 60.6428V61.5512Z" fill="#E6BAA8"/>
<path d="M87.0039 62.5122L94.3094 75.69" stroke="#D68A83" stroke-width="0.8504" stroke-miterlimit="2.6131" stroke-linecap="round" stroke-linejoin="round"/>
<path d="M83.7935 63.8024C83.7935 63.8024 84.2521 63.2955 84.7566 63.7234C85.2611 64.1512 92.2128 79.9751 92.2128 79.9751" stroke="#D68A83" stroke-width="0.8504" stroke-miterlimit="2.6131" stroke-linecap="round" stroke-linejoin="round"/>
<path d="M83.7935 71.8261C83.7935 71.8261 83.99 71.372 84.7828 71.6155C85.5821 71.8525 85.7656 73.7745 86.4011 76.493C87.0367 79.2115 88.2554 84.3786 88.2554 84.3786" stroke="#D68A83" stroke-width="0.8504" stroke-miterlimit="2.6131" stroke-linecap="round" stroke-linejoin="round"/>
<path d="M83.7935 60.6494V89.5458" stroke="#D68A83" stroke-width="0.8504" stroke-miterlimit="2.6131" stroke-linecap="round" stroke-linejoin="round"/>
<path d="M97.3246 75.7821C96.689 74.2353 91.3819 66.139 88.7808 61.4458C88.7808 61.4458 88.3025 61.097 87.8373 61.2484C87.3721 61.3932 87.0052 62.5122 87.0052 62.5122L85.7341 60.5112C85.7341 60.5112 84.653 59.3395 83.8013 60.6428" stroke="#D68A83" stroke-width="0.8504" stroke-miterlimit="2.6131" stroke-linecap="round" stroke-linejoin="round"/>
<path fill-rule="evenodd" clip-rule="evenodd" d="M113.153 140.776C105.776 132.028 88.0786 101.479 88.0786 101.479L95.5937 94.6733L96.2227 94.9169L118.139 118.811L129.723 131.1C135.784 137.531 125.89 155.869 113.153 140.776Z" fill="#E6BAA8"/>
<path d="M116.193 116.685L125.837 126.979" stroke="#D68A83" stroke-width="0.8504" stroke-miterlimit="2.6131" stroke-linecap="round" stroke-linejoin="round"/>
<path fill-rule="evenodd" clip-rule="evenodd" d="M70.106 78.3032C70.106 78.3032 69.0249 71.1153 68.9987 70.3452C68.9725 69.575 72.183 69.4105 72.7137 74.1563C73.2444 78.9022 70.3287 78.1518 70.3287 78.1518L70.106 78.3032Z" fill="#D68A83"/>
<path fill-rule="evenodd" clip-rule="evenodd" d="M83.7934 61.5512C83.7934 61.5512 83.7934 90.1184 83.7934 93.528C83.7934 96.9377 81.8868 99.123 79.8688 101.098C77.8507 103.072 69.5232 115.329 69.5232 115.329L60.9663 107.989C60.9663 107.989 71.8295 94.5812 72.3602 93.5149C72.8909 92.4486 72.9433 90.4212 72.3078 86.9062C71.6722 83.3913 69.628 77.329 70.2701 75.7821C70.9057 74.2353 76.2128 66.139 78.8073 61.4458C78.8073 61.4458 79.2856 61.097 79.7508 61.2484C80.216 61.3932 80.5829 62.5122 80.5829 62.5122L81.854 60.5112C81.854 60.5112 82.9351 59.3395 83.7868 60.6428V61.5512H83.7934Z" fill="#E6BAA8"/>
<path d="M80.5891 62.5122L73.2837 75.69" stroke="#D68A83" stroke-width="0.8504" stroke-miterlimit="2.6131" stroke-linecap="round" stroke-linejoin="round"/>
<path d="M83.7933 63.8024C83.7933 63.8024 83.3347 63.2955 82.8302 63.7234C82.3257 64.1512 75.374 79.9751 75.374 79.9751" stroke="#D68A83" stroke-width="0.8504" stroke-miterlimit="2.6131" stroke-linecap="round" stroke-linejoin="round"/>
<path d="M83.7934 71.8261C83.7934 71.8261 83.5969 71.372 82.8041 71.6155C82.0047 71.8525 81.8213 73.7745 81.1858 76.493C80.5502 79.2115 79.3315 84.3786 79.3315 84.3786" stroke="#D68A83" stroke-width="0.8504" stroke-miterlimit="2.6131" stroke-linecap="round" stroke-linejoin="round"/>
<path d="M83.7935 60.6494V89.5458" stroke="#D68A83" stroke-width="0.8504" stroke-miterlimit="2.6131" stroke-linecap="round" stroke-linejoin="round"/>
<path d="M70.27 75.7821C70.9056 74.2353 76.2127 66.139 78.8072 61.4458C78.8072 61.4458 79.2855 61.097 79.7507 61.2484C80.2159 61.3932 80.5828 62.5122 80.5828 62.5122L81.8539 60.5112C81.8539 60.5112 82.935 59.3395 83.7868 60.6428" stroke="#D68A83" stroke-width="0.8504" stroke-miterlimit="2.6131" stroke-linecap="round" stroke-linejoin="round"/>
<path fill-rule="evenodd" clip-rule="evenodd" d="M54.4338 140.776C61.8113 132.028 79.5082 101.479 79.5082 101.479L71.9931 94.6733L71.3641 94.9169L49.4477 118.811L37.8638 131.1C31.8032 137.531 41.7033 155.869 54.4338 140.776Z" fill="#E6BAA8"/>
<path d="M51.3935 116.685L41.749 126.979" stroke="#D68A83" stroke-width="0.8504" stroke-miterlimit="2.6131" stroke-linecap="round" stroke-linejoin="round"/>
<path fill-rule="evenodd" clip-rule="evenodd" d="M107.341 17.4695C106.607 16.1925 105.9 15.1064 105.245 14.2046C103.331 13.6781 100.914 13.6846 97.9784 14.9616C90.4698 18.2396 78.7418 28.4027 68.7697 11.6968C66.2734 13.8294 63.5936 16.2649 61.2021 18.5621C63.9147 23.3014 68.5404 30.1273 73.723 32.4837C81.9588 36.2225 88.4191 28.4817 92.4944 24.1242C95.8162 20.5632 101.438 14.9945 107.341 17.4695Z" fill="#453F70"/>
<path fill-rule="evenodd" clip-rule="evenodd" d="M162.129 148.003C169.401 153.243 178.083 156.488 187 157.291C150.145 169.949 99.0528 174.55 57.7753 167.178C43.0793 164.551 25.1137 156.587 12.737 148.201C3.37427 141.855 1.48075 137.241 1.48075 137.241C0.917278 125.419 3.55773 115.098 6.15231 103.553C6.15231 103.553 5.79195 109.286 16.3144 116.836C55.5542 144.989 122.699 143.949 167.862 126.979C166.243 133.845 164.415 141.329 162.129 148.003Z" fill="#00907E"/>
<path d="M13.1433 121.97C15.6658 123.247 16.8845 123.873 19.2694 125.084C22.7485 126.848 24.0196 129.981 22.9581 133.206C22.9516 133.226 22.9516 133.233 22.945 133.252C21.746 136.905 18.5552 137.406 15.2465 135.438C14.2637 134.852 13.7657 134.556 12.7633 133.943C12.1277 135.708 11.8067 136.59 11.1711 138.334C9.84764 137.478 9.18589 137.037 7.83618 136.129C9.95902 130.468 11.0204 127.638 13.1433 121.97ZM16.3931 132.548C18.0114 133.463 19.2825 132.956 19.7346 131.633C19.7411 131.613 19.7411 131.607 19.7477 131.587C20.2653 130.066 19.5642 128.75 17.9459 127.901C16.95 127.374 16.4455 127.104 15.4234 126.565C14.7747 128.355 14.4471 129.257 13.7985 131.06C14.8533 131.666 15.3644 131.962 16.3931 132.548Z" fill="white"/>
<path d="M27.0006 128.954C29.5297 130.185 30.768 130.777 33.2447 131.896C34.9678 132.673 36.1341 133.779 36.7303 135.194C37.2414 136.392 37.3003 137.834 36.8745 139.407C36.8679 139.427 36.8679 139.433 36.8614 139.453C36.1275 142.145 34.4502 143.389 32.4453 143.389C33.1398 146.364 33.5002 147.865 34.2995 150.623C32.8188 150.031 32.085 149.721 30.6108 149.063C29.9621 146.549 29.6607 145.212 29.0842 142.54C29.0711 142.533 29.058 142.527 29.0449 142.52C28.0883 142.066 27.61 141.829 26.6534 141.349C26.0178 143.422 25.6968 144.455 25.0809 146.424C23.8229 145.785 23.1939 145.449 21.9229 144.765C23.9212 138.65 25.0088 135.062 27.0006 128.954ZM30.7287 139.657C32.216 140.342 33.343 139.749 33.7361 138.354C33.7426 138.334 33.7426 138.327 33.7492 138.308C34.1947 136.748 33.5199 135.582 32.0522 134.918C30.8532 134.378 30.257 134.095 29.0514 133.522C28.4879 135.359 28.1996 136.3 27.6231 138.176C28.8679 138.788 29.4904 139.084 30.7287 139.657Z" fill="white"/>
<path d="M41.0286 135.135C45.1301 136.688 47.194 137.366 51.551 138.472C51.289 139.65 51.1448 140.276 50.8631 141.566C47.7312 140.782 46.2243 140.335 43.2366 139.321C42.9024 140.651 42.7321 141.342 42.3914 142.718C45.0515 143.619 46.3946 144.027 49.1596 144.752C48.8582 146.094 48.7075 146.779 48.4061 148.128C45.615 147.391 44.2521 146.976 41.5593 146.061C41.2055 147.49 41.0286 148.207 40.6879 149.583C43.8263 150.656 45.4118 151.13 48.6878 151.959C48.4061 153.249 48.262 153.875 47.9999 155.046C43.3611 153.894 41.1334 153.203 36.7305 151.558C38.3685 145.429 39.3906 141.256 41.0286 135.135Z" fill="white"/>
<path d="M53.2544 138.887C54.6762 139.216 55.4034 139.367 56.858 139.677C57.5394 144.218 57.808 147.213 58.5746 152.341C61.143 147.872 62.4206 145.199 64.8186 141.27C66.2863 141.546 67.0201 141.678 68.5008 141.934C64.9366 147.556 62.9841 152.005 59.1708 157.515C57.8997 157.271 57.2708 157.153 56.0259 156.903C54.65 150.379 54.2962 145.462 53.2544 138.887Z" fill="white"/>
<path d="M71.0628 142.362C72.4387 142.586 73.1332 142.691 74.5157 142.895C73.6115 148.918 73.2446 153.552 72.3405 159.575C70.8532 159.371 70.1062 159.259 68.6255 159.029C69.6083 153.019 70.08 148.385 71.0628 142.362Z" fill="white"/>
<path d="M78.4533 143.442C79.7309 143.606 80.373 143.679 81.6506 143.823C84.1535 147.865 85.5359 150.373 88.3664 154.842C88.5957 150.557 88.6612 148.187 89.0216 144.462C90.3778 144.547 91.0593 144.58 92.409 144.626C91.8979 150.682 92.0552 155.303 91.5507 161.365C90.3123 161.313 89.6899 161.286 88.4319 161.207C85.549 157.172 84.0224 154.566 81.2772 149.826C80.8906 154.23 80.7333 156.705 80.2682 160.542C78.794 160.391 78.0601 160.306 76.5859 160.128C77.3918 154.098 77.6408 149.471 78.4533 143.442Z" fill="white"/>
<path d="M101.353 144.501C102.597 144.449 103.233 144.416 104.55 144.33C107.125 150.254 109.123 154.921 112.294 160.832C110.597 160.957 109.759 161.01 108.101 161.109C107.459 159.786 107.131 159.062 106.476 157.574C103.508 157.738 102.027 157.804 99.3542 157.85C98.7383 159.371 98.4173 160.115 97.7359 161.477C96.2879 161.484 95.5606 161.477 94.0864 161.444C96.8972 155.974 98.8759 150.123 101.353 144.501ZM105.068 154.283C104.124 152.045 103.652 150.893 102.794 148.721C101.929 150.978 101.516 152.17 100.645 154.474C102.362 154.421 103.253 154.382 105.068 154.283Z" fill="white"/>
<path d="M121.834 157.686C122.771 156.554 123.236 155.961 124.166 154.763C125.922 155.909 127.744 156.521 129.886 156.297C131.577 156.119 132.56 155.408 132.507 154.368C132.507 154.349 132.507 154.335 132.507 154.316C132.455 153.328 131.8 152.874 128.615 152.433C124.782 151.907 122.273 151.09 122.109 147.595C122.109 147.575 122.109 147.562 122.109 147.543C121.958 144.35 124.638 142.244 128.458 141.783C131.184 141.454 133.516 141.849 135.442 142.974C134.656 144.172 134.257 144.804 133.47 146.081C131.773 145.179 130.116 144.745 128.53 144.936C126.945 145.127 126.145 145.877 126.185 146.726C126.185 146.746 126.185 146.759 126.185 146.779C126.237 147.937 127.082 148.227 130.352 148.668C134.191 149.188 136.366 150.36 136.524 153.493C136.524 153.513 136.524 153.526 136.524 153.546C136.707 157.107 133.981 159.035 129.926 159.45C127.089 159.74 124.166 159.259 121.834 157.686Z" fill="white"/>
<path d="M139.38 140.697C144.786 140.065 147.407 139.775 152.006 139.4C152.098 140.598 152.144 141.25 152.242 142.619C148.94 142.889 147.144 143.08 143.416 143.488C143.495 144.896 143.534 145.647 143.613 147.141C146.902 146.792 148.501 146.628 151.482 146.371C151.574 147.819 151.619 148.563 151.711 150.017C148.71 150.268 147.112 150.426 143.81 150.768C143.895 152.321 143.934 153.091 144.013 154.553C147.819 154.171 149.667 153.993 153.094 153.723C153.185 155.086 153.238 155.744 153.33 156.935C148.475 157.324 145.795 157.6 140.285 158.166C139.977 152.018 139.682 146.845 139.38 140.697Z" fill="white"/>
</g>
<defs>
<clipPath id="clip0">
<rect width="187" height="193" fill="white"/>
</clipPath>
</defs>
</svg>
